<svg xmlns="http://www.w3.org/2000/svg" viewBox="0 0 24 24">
<path class="bist0" d="M14.8 15.3l1.3-3.8c.1-.2 0-.5-.2-.6l-3.3-2.4c-.2-.1-.5-.1-.6 0l-3.3 2.4c-.2.1-.3.4-.2.6l1.3 3.8c.1.2.3.4.5.4h4c.2 0 .4-.2.5-.4z"/><path class="bist0" d="M12 1.9C6.4 1.9 1.9 6.4 1.9 12S6.4 22.1 12 22.1 22.1 17.6 22.1 12 17.6 1.9 12 1.9zM9.8 20.3c.1-.2.1-.4 0-.6l-1.4-2.3c-.1-.1-.2-.2-.4-.3l-2.5-.6c-.2-.1-.5.1-.6.2-.9-1.3-1.4-2.9-1.5-4.5.2 0 .4 0 .5-.2l1.7-2c.1 0 .2-.2.2-.3l-.3-2.6c0-.2-.1-.3-.3-.4C6.2 5.4 7.5 4.5 9 4c0 .1.2.3.3.3l2.5 1.1c.1.1.3.1.4 0l2.5-1.1.3-.3c1.5.6 2.7 1.5 3.7 2.7-.1.1-.2.2-.2.4l-.2 2.6c0 .2 0 .3.1.4l1.7 2c.1.1.3.2.4.2 0 1.6-.5 3.1-1.3 4.4-.1-.1-.2-.1-.4-.1l-2.5.6c-.1 0-.3.1-.4.3l-1.4 2.3c-.1.2-.1.3 0 .5-.8.2-1.6.4-2.5.4-.7-.1-1.5-.2-2.2-.4z"/>
</svg>