<svg xmlns="http://www.w3.org/2000/svg" viewBox="0 0 24 24">
<path class="bkst0" d="M7.4 11.4c-.4 0-.8.4-.8.8V14c0 .4.4.8.8.8s.8-.4.6-.8v-1.8c0-.6-.2-.8-.6-.8zm-2.8-1c-.4 0-.8.4-.8.8V15c0 .4.4.8.8.8s.8-.4.8-.8v-3.8c0-.6-.4-.8-.8-.8z"/><path class="bkst0" d="M23 7.2c-.6-.6-1.6-.8-2.8-.6-.2 0-.4.2-.6.2V4.2c0-.6-.6-1.2-1.2-1.2h-17C.8 3 .2 3.6.2 4.2v7.4c0 5.4 3.2 9.6 8.4 9.6h2.2c4.2 0 7-2.6 8-6h.4c2.2-.4 4-2.6 4.4-4.8.4-1.4.2-2.4-.6-3.2zm-4.8-2.8v3H1.6v-3h16.6zM11 19.8H8.8c-5.2 0-7-4.4-7-8.2V8.8h16.6v2.8c-.2 4-2.4 8.2-7.4 8.2zm8.4-6.2c.2-.6.2-1.4.2-2V8.4c.4-.2.6-.4 1-.4.6-.2 1.2 0 1.4.4.4.4.6 1 .4 1.8-.2 1.4-1.6 3-3 3.4z"/>
</svg>