<svg xmlns="http://www.w3.org/2000/svg" viewBox="0 0 24 24">
<path class="blst1" d="M10 19c-5 0-9-4-9-9s4-9 9-9 9 4 9 9-4 9-9 9zm0-16.6c-4.2 0-7.6 3.4-7.6 7.6s3.4 7.6 7.6 7.6c4.2 0 7.6-3.4 7.6-7.6S14.2 2.4 10 2.4z"/><path class="blst1" d="M7.2 9.6c.6 0 1.2-.6 1.2-1.3 0-.7-.6-1.3-1.2-1.3s-1.1.6-1.1 1.3c0 .7.5 1.3 1.1 1.3zm7.4 1.8c-1 .1-2.7.4-4.5.4-1.7 0-3.5-.3-4.4-.4-.3 0-.6.3-.4.6 1 1.7 2.8 3.1 4.9 3.1 2.1 0 3.9-1.4 4.9-3.1 0-.3-.2-.6-.5-.6zm-4.3 2.1c-2.3 0-3.6-.8-3.7-1.4 0 0 3.9.8 7.1 0-.1 0-.5 1.4-3.4 1.4zm2.5-3.9c.6 0 1.2-.6 1.2-1.3 0-.7-.5-1.3-1.2-1.3-.6 0-1.2.6-1.2 1.3 0 .7.6 1.3 1.2 1.3z"/>
</svg>