<svg xmlns="http://www.w3.org/2000/svg" viewBox="0 0 24 24">
<ellipse class="bmst0" cx="7.2" cy="13.6" rx="1.1" ry="1.4"/><ellipse class="bmst0" cx="16.9" cy="13.6" rx="1.1" ry="1.4"/><path class="bmst0" d="M21.5 11.1l-1.2-2.4c.9-.4 1.7-1.3 2-2.2.3-.7.4-2.1-1-3.5-1-.9-2-1.2-2.9-1-1.1.3-1.9 1.2-2.3 1.9-1.4-.7-2.9-.8-4.1-.8-1.5 0-2.8.3-4 .9-.5-.9-1.2-1.8-2.3-2.1-1-.2-2 .1-2.9 1-1 1-1.4 2.2-1 3.4.4 1.1 1.2 1.9 2 2.3-.2.5-.4 1-.6 1.6l-.2.2c-.3.7-.5 1.3-.8 1.9-.4 1-.9 1.9-.9 3.1 0 1.6.8 6.7 10.5 6.7 3.8 0 6.6-.7 8.5-2.2 1.9-1.5 2.2-3.4 2.2-4.3.2-2.1-.2-2.9-1-4.5zm-2.7-7.6c.4-.1.9.1 1.5.6.6.6.8 1.2.6 1.8-.2.6-.7 1.1-1.2 1.3-.6-1.2-1.3-2-2.1-2.6.2-.4.6-1 1.2-1.1zM3.3 5.9c-.2-.6 0-1.2.6-1.8.5-.5 1.1-.7 1.5-.6.5.1 1.1.7 1.3 1.2-.9.7-1.6 1.5-2.2 2.6C4 7 3.4 6.5 3.3 5.9zm17.8 9.7c0 .7-.2 2-1.6 3.1-1.5 1.2-4.1 1.8-7.5 1.8-8.3 0-8.9-3.9-8.9-5.1 0-.8.3-1.5.7-2.4.3-.6.6-1.2.8-2.1l.1-.2c.5-1.5 2-6.2 7.3-6.2 1.2 0 2.5.2 3.7.9.1.1.2.2.4.3h.1c.9.7 1.7 1.7 2.4 3.2.6 1.3 1 2.2 1.4 2.9.8 1.6 1.1 2.1 1.1 3.8z"/><path class="bmst0" d="M14.6 17c-.1.1-.6.4-1.2.3-.4-.1-.7-.3-.9-.8 0-.1-.1-.1-.1-.2.8-.1 1.3-.6 1.3-1.3 0-.7-.7 0-1.7 0-.9 0-1.7-.7-1.7 0 0 .6.6 1.2 1.4 1.3l-.1.1c-.3.4-.5.7-.9.8-.5.1-1.1-.1-1.3-.3-.2-.2-.5-.1-.7.1-.2.2-.1.5.1.7.1.1.8.5 1.6.5.2 0 .4 0 .5-.1.4-.1.8-.3 1.1-.7.4.4.9.6 1.2.7.8.2 1.7-.2 2-.5.2-.2.2-.5 0-.7-.1 0-.4-.1-.6.1z"/>
</svg>