<svg xmlns="http://www.w3.org/2000/svg" viewBox="0 0 24 24">
<path class="bnst0" d="M18.8 6.7c-.9-2.6-3.2-4.6-6-4.9h-1.6c-2.8.3-5.1 2.2-6 4.9-1 3 .1 6.2 2.7 8H8c.2.1.3.4.3.6v2c0 .8.6 1.4 1.4 1.4h4.6c.8 0 1.4-.6 1.4-1.4v-2c0-.2.1-.5.3-.6l.1-.1c2.5-1.8 3.6-5 2.7-7.9zm-3.5 6.9l-.1.1c-.5.4-.9 1-.9 1.7v2s0 .1-.1.1H9.8s-.1 0-.1-.1v-2c0-.7-.3-1.3-.9-1.7l-.1-.1c-2-1.4-3-4-2.2-6.5.7-2.1 2.6-3.7 4.9-3.9h1.3c2.2.2 4.2 1.8 4.9 3.9.7 2.4-.2 5-2.3 6.5zm-6.1 7.6c0 .6.5 1 1 1h3.7c.6 0 1-.5 1-1v-1H9.2v1z"/><path class="bnst0" d="M13.6 10.5c-.4 0-.8.3-.8.8 0 .1 0 .2.1.3-.2.3-.5.5-.8.5-.3 0-.6-.2-.8-.5 0-.1.1-.2.1-.3 0-.4-.3-.8-.8-.8-.4 0-.8.3-.8.8 0 .4.3.7.7.8.3.4.7.7 1.1.8V15c0 .2.2.4.4.4s.4-.2.4-.4v-2.1c.4-.1.8-.4 1.1-.8.4 0 .8-.3.8-.8s-.3-.8-.7-.8z"/>
</svg>