<svg xmlns="http://www.w3.org/2000/svg" viewBox="0 0 24 24">
<path class="brst0" d="M21.5 11.5c0-.7-.1-1.4-.3-2l-1.5-4.3C19.2 3.9 18 3 16.6 3H7.3c-1.4 0-2.6.9-3.1 2.2L2.6 9.9c-.1.4-.2.7-.2 1.1v8.6c0 .6.5 1.1 1.1 1.1h1.1c.6 0 1.1-.5 1.1-1.1v-1.1h12.7v1.1c0 .6.5 1.1 1.1 1.1h1.1c.6 0 1.1-.5 1.1-1.1v-7.4l-.2-.7zM4.1 10.4l1.6-4.7c.2-.7.9-1.2 1.7-1.2h9.2c.7 0 1.4.5 1.6 1.2l1.5 4.3c.1.3.2.6.2.8H4c-.1-.1 0-.3.1-.4zm1.4 5.7c-.8 0-1.5-.7-1.5-1.5s.7-1.5 1.5-1.5 1.5.7 1.5 1.5c-.1.8-.7 1.5-1.5 1.5zm9.4-.6H9.3c-.5 0-1-.4-1-1 0-.5.4-1 1-1h5.6c.5 0 1 .4 1 1-.1.6-.5 1-1 1zm3.7.6c-.8 0-1.5-.7-1.5-1.5s.7-1.5 1.5-1.5 1.5.7 1.5 1.5-.7 1.5-1.5 1.5z"/>
</svg>